<svg width="17" height="27" viewBox="0 0 17 27" fill="none" xmlns="http://www.w3.org/2000/svg">
<path d="M6.77726 19.0176C4.68417 18.7993 2.79693 18.2838 1.18116 17.0201C0.980671 16.8629 0.77368 16.7113 0.590725 16.5357C-0.116494 15.8565 -0.187753 15.0786 0.371857 14.2769C0.850594 13.5909 1.65424 13.4074 2.48955 13.8013C2.6513 13.8776 2.80541 13.9729 2.95302 14.0753C5.96429 16.1444 10.101 16.2015 13.1236 14.1683C13.423 13.9387 13.7431 13.7515 14.1141 13.6559C14.8355 13.4707 15.5082 13.7357 15.8953 14.3668C16.3376 15.0876 16.3319 15.7912 15.787 16.3508C14.9511 17.2087 13.9459 17.8294 12.8289 18.2626C11.7728 18.6721 10.6159 18.8782 9.47097 19.0151C9.64375 19.2031 9.72519 19.2956 9.83321 19.4042C11.3879 20.9662 12.9494 22.5218 14.499 24.0886C15.0269 24.6225 15.1372 25.2845 14.8465 25.9054C14.5287 26.5841 13.8172 27.0306 13.1196 26.9828C12.6776 26.9523 12.3329 26.7323 12.0267 26.4238C10.8535 25.2432 9.65817 24.0844 8.50869 22.8815C8.17417 22.5317 8.01327 22.5978 7.71805 22.9015C6.53775 24.1166 5.33822 25.313 4.13163 26.5027C3.58983 27.0368 2.9451 27.133 2.31678 26.8279C1.64887 26.5041 1.22386 25.8223 1.25666 25.1371C1.27928 24.6737 1.5072 24.3196 1.82532 24.0021C3.36389 22.4658 4.89823 20.9255 6.43313 19.3867C6.53464 19.2843 6.62937 19.1757 6.77726 19.0176Z" fill="white"/>
<path d="M8.05209 13.6662C4.31806 13.6535 1.25617 10.558 1.27795 6.818C1.29944 3.03674 4.3633 -0.0104358 8.1341 2.68625e-05C11.9125 0.0102067 14.9453 3.10121 14.9263 6.92178C14.9071 10.6541 11.824 13.6792 8.05209 13.6662ZM11.4457 6.82705C11.4392 4.97007 9.96025 3.49173 8.10695 3.49003C6.23809 3.48805 4.74589 4.99326 4.76031 6.8672C4.77417 8.71711 6.26581 10.185 8.1242 10.1782C9.97694 10.1717 11.4519 8.68375 11.4457 6.82705Z" fill="white"/>
</svg>
