<svg width="28" height="28" viewBox="0 0 28 28" fill="none" xmlns="http://www.w3.org/2000/svg">
<path d="M24.1613 4.26325C24.1613 4.26325 26.4277 3.3795 26.2388 5.52575C26.1759 6.40952 25.6093 9.50264 25.1686 12.8483L23.6576 22.759C23.6576 22.759 23.5317 24.2108 22.3985 24.4633C21.2652 24.7158 19.5655 23.5796 19.2506 23.3271C18.9988 23.1377 14.529 20.2971 12.955 18.9083C12.5143 18.5295 12.0107 17.772 13.018 16.8883L19.6284 10.5758C20.3839 9.81828 21.1394 8.05078 17.9915 10.197L9.17764 16.1939C9.17764 16.1939 8.17034 16.8252 6.28168 16.2571L2.1895 14.9945C2.1895 14.9945 0.67854 14.0477 3.25975 13.1008C9.55541 10.1339 17.299 7.10386 24.1613 4.26325Z" fill="white"/>
</svg>
