<svg width="32" height="19" viewBox="0 0 32 19" fill="none" xmlns="http://www.w3.org/2000/svg">
<path d="M31.2759 1.30622C30.9158 2.43552 30.4304 3.41851 29.8223 4.31105L29.8476 4.27114C29.2502 5.26433 28.5368 6.41181 27.7073 7.71359C26.9961 8.74136 26.6195 9.27343 26.5778 9.30979C26.3937 9.5399 26.2657 9.8219 26.2217 10.1318L26.2204 10.1411C26.2564 10.4231 26.3871 10.6692 26.5778 10.8528L27.1112 11.446C29.965 14.3715 31.5702 16.388 31.9267 17.4956C31.9733 17.618 32 17.759 32 17.9066C32 18.1647 31.9173 18.4028 31.7773 18.5983L31.78 18.5943C31.5453 18.8351 31.2172 18.984 30.8545 18.984C30.8145 18.984 30.7731 18.9827 30.7345 18.9787H30.7398H27.2312C27.2299 18.9787 27.2272 18.9787 27.2245 18.9787C26.7751 18.9787 26.3617 18.8218 26.0377 18.561L26.0417 18.5637C25.5696 18.1766 25.1495 17.7576 24.7735 17.3027L24.7615 17.2868C24.1471 16.5942 23.6022 16.0111 23.1265 15.5376C21.5423 14.0354 20.3732 13.2843 19.6193 13.2843C19.5913 13.2816 19.5593 13.2803 19.5259 13.2803C19.3059 13.2803 19.1005 13.3482 18.9312 13.4639L18.9352 13.4612C18.7965 13.6341 18.7125 13.8576 18.7125 14.0984C18.7125 14.1462 18.7151 14.1915 18.7218 14.238V14.2327C18.6858 14.6504 18.6644 15.1359 18.6644 15.6267C18.6644 15.785 18.6671 15.942 18.6711 16.0989V16.0763V17.618C18.6844 17.6805 18.6924 17.7523 18.6924 17.8255C18.6924 18.1474 18.5458 18.4347 18.3164 18.6249L18.3151 18.6262C17.799 18.8617 17.1962 19 16.5601 19C16.4241 19 16.2907 18.9933 16.1587 18.9814L16.176 18.9827C14.077 18.9428 12.13 18.3296 10.4751 17.2961L10.5218 17.3227C8.50675 16.1016 6.83714 14.512 5.56493 12.6339L5.52892 12.578C4.32072 10.9791 3.19387 9.17278 2.23371 7.26799L2.14036 7.06315C1.57893 5.99636 0.9975 4.68482 0.496083 3.33604L0.416069 3.08996C0.212035 2.48341 0.0640107 1.77842 0.00266711 1.04817L0 1.01491C0 0.342738 0.39651 0.00665095 1.18953 0.00665095H4.69678C4.72879 0.00399063 4.76613 0.00266013 4.8048 0.00266013C5.13552 0.00266013 5.44091 0.115724 5.68228 0.305937L5.67961 0.303277C5.94632 0.594582 6.14369 0.952394 6.24104 1.35144L6.24504 1.3674C6.89048 3.18573 7.5746 4.71275 8.36139 6.17593L8.27205 5.9937C8.91482 7.28395 9.6256 8.39464 10.4364 9.42019L10.4057 9.37895C11.117 10.2498 11.6717 10.6852 12.07 10.6852C12.082 10.6865 12.0967 10.6865 12.1127 10.6865C12.3101 10.6865 12.4821 10.5801 12.5754 10.4205L12.5768 10.4178C12.6754 10.1651 12.7328 9.87111 12.7328 9.56518C12.7328 9.5 12.7301 9.43482 12.7248 9.37097V9.37895V4.21927C12.6968 3.61138 12.5474 3.0434 12.298 2.53395L12.3087 2.55923C12.1434 2.20806 11.9447 1.90479 11.7086 1.63477L11.7126 1.64009C11.4939 1.42194 11.3446 1.13596 11.2979 0.816718L11.2965 0.808737C11.2965 0.58261 11.4006 0.379095 11.5633 0.246079L11.5646 0.244749C11.726 0.0971017 11.942 0.00798101 12.178 0.00798101H12.1887H17.7176C17.747 0.00399053 17.7803 0.00266013 17.815 0.00266013C18.075 0.00266013 18.3084 0.119715 18.4631 0.303277L18.4644 0.304607C18.6018 0.554677 18.6831 0.853963 18.6831 1.17054C18.6831 1.22109 18.6804 1.2703 18.6764 1.31952V1.31287V8.19378C18.6738 8.22571 18.6724 8.26295 18.6724 8.3002C18.6724 8.54494 18.7405 8.77506 18.8578 8.9706L18.8551 8.96527C18.9525 9.10893 19.1152 9.20204 19.2992 9.20204H19.3005C19.5353 9.18608 19.7486 9.10893 19.9287 8.98656L19.9247 8.98922C20.2874 8.74048 20.5994 8.45715 20.8701 8.13659L20.8755 8.12993C21.6849 7.21744 22.4317 6.20918 23.0825 5.13708L23.1345 5.04396C23.5933 4.28577 24.0893 3.352 24.5388 2.39296L24.6214 2.19742L25.2162 1.01092C25.4229 0.41767 25.9777 0 26.6298 0C26.6551 0 26.6804 -9.64721e-08 26.7058 0.00133006H26.7018H30.2104C31.1581 0.00133006 31.5137 0.436292 31.2772 1.30622H31.2759Z" fill="white"/>
</svg>
